<?xml version="1.0" encoding="utf-8"?>
<!-- Generator: Adobe Illustrator 25.2.0, SVG Export Plug-In . SVG Version: 6.00 Build 0)  -->
<svg version="1.1" id="Calque_1" xmlns:v="https://vecta.io/nano"
	 xmlns="http://www.w3.org/2000/svg" xmlns:xlink="http://www.w3.org/1999/xlink" x="0px" y="0px" viewBox="0 0 217.5 27.2"
	 style="enable-background:new 0 0 217.5 27.2;" xml:space="preserve">
<style type="text/css">
	.st0{fill:#FFFFFF;}
</style>
<g>
	<path class="st0" d="M0,27.2v-27h5.3v22.4h5.4v4.6H0z M12.2,27.2v-27h10.5v5.2h-5.2v5.3h5v5.1h-5V22H23v5.2H12.2z"/>
	<g>
		<path id="B" class="st0" d="M31.1,27.2c-2.4,0-4.1-0.6-5.2-1.8s-1.6-3.1-1.6-5.8V17h5.2v3.3c0,0.6,0.1,1.1,0.3,1.4s0.5,0.5,1,0.5
			s0.8-0.1,1-0.4s0.3-0.7,0.3-1.4c0-0.8-0.1-1.5-0.2-2c-0.2-0.6-0.4-1.1-0.8-1.6s-0.9-1.1-1.6-1.7l-2.4-2.3
			c-1.8-1.7-2.6-3.6-2.6-5.8c0-2.3,0.5-4,1.6-5.2c1-1.2,2.6-1.8,4.5-1.8c2.4,0,4.1,0.6,5.1,1.9s1.5,3.3,1.5,5.9h-5.4V6.2
			c0-0.4-0.1-0.6-0.3-0.8c-0.2-0.2-0.5-0.3-0.8-0.3c-0.4,0-0.7,0.1-0.9,0.4c-0.2,0.2-0.3,0.5-0.3,0.9c0,0.4,0.1,0.8,0.3,1.2
			s0.6,0.9,1.2,1.5l3,2.9c0.6,0.6,1.2,1.2,1.7,1.9c0.5,0.6,0.9,1.4,1.2,2.3c0.3,0.9,0.5,1.9,0.5,3.1c0,2.5-0.5,4.4-1.4,5.9
			C34.9,26.5,33.3,27.2,31.1,27.2z"/>
	</g>
	<path class="st0" d="M46.1,27.2v-27h7c1.5,0,2.6,0.3,3.5,1s1.5,1.6,1.8,2.8C58.8,5.2,59,6.7,59,8.4c0,1.6-0.2,3.1-0.5,4.3
		s-0.9,2.1-1.7,2.8c-0.8,0.7-1.9,1-3.4,1h-2.1v10.7C51.3,27.2,46.1,27.2,46.1,27.2z M51.3,11.7h0.3c1,0,1.6-0.3,1.8-0.8
		c0.2-0.6,0.3-1.4,0.3-2.5c0-1-0.1-1.8-0.3-2.4c-0.2-0.6-0.7-0.8-1.5-0.8h-0.6V11.7z M60.6,27.2v-27h10.5v5.2H66v5.3h5v5.1h-5V22
		h5.5v5.2H60.6z M75.5,27.2V5.4h-3.1V0.2h11.5v5.2h-3.1v21.8H75.5z M85.1,27.2v-27h5.1v27H85.1z M94.6,27.2V5.4h-3.1V0.2H103v5.2
		h-3.1v21.8H94.6z"/>
	<g>
		<path id="B_1_" class="st0" d="M110.7,27.2c-2.4,0-4.1-0.6-5.2-1.8s-1.6-3.1-1.6-5.8V17h5.2v3.3c0,0.6,0.1,1.1,0.3,1.4
			c0.2,0.3,0.5,0.5,1,0.5s0.8-0.1,1-0.4c0.2-0.3,0.3-0.7,0.3-1.4c0-0.8-0.1-1.5-0.2-2c-0.2-0.6-0.4-1.1-0.8-1.6s-0.9-1.1-1.6-1.7
			l-2.4-2.3c-1.8-1.7-2.6-3.6-2.6-5.8c0-2.3,0.5-4,1.6-5.2c1-1.2,2.6-1.8,4.5-1.8c2.4,0,4.1,0.6,5.1,1.9s1.5,3.3,1.5,5.9h-5.4V6.2
			c0-0.4-0.1-0.6-0.3-0.8c-0.2-0.2-0.5-0.3-0.8-0.3c-0.4,0-0.7,0.1-0.9,0.4c-0.2,0.2-0.3,0.5-0.3,0.9c0,0.4,0.1,0.8,0.3,1.2
			c0.2,0.4,0.6,0.9,1.2,1.5l3,2.9c0.6,0.6,1.2,1.2,1.7,1.9c0.5,0.6,0.9,1.4,1.2,2.3c0.3,0.9,0.5,1.9,0.5,3.1c0,2.5-0.5,4.4-1.4,5.9
			C114.5,26.5,112.9,27.2,110.7,27.2z"/>
	</g>
	<path class="st0" d="M125.8,27.2v-27h7c1.5,0,2.6,0.3,3.5,1s1.5,1.6,1.8,2.8c0.4,1.2,0.6,2.7,0.6,4.4c0,1.6-0.2,3.1-0.5,4.3
		s-0.9,2.1-1.7,2.8c-0.8,0.7-1.9,1-3.4,1H131v10.7H125.8z M130.9,11.7h0.3c1,0,1.6-0.3,1.8-0.8c0.2-0.6,0.3-1.4,0.3-2.5
		c0-1-0.1-1.8-0.3-2.4c-0.2-0.6-0.7-0.8-1.5-0.8h-0.6V11.7z M140.2,27.2v-27h5.3v22.4h5.4v4.6H140.2z M151.7,27.2l2.5-27h8.9l2.5,27
		h-5l-0.4-4.4H157l-0.3,4.4H151.7L151.7,27.2z M157.5,18.5h2.4l-1.2-13.7h-0.2L157.5,18.5z M169.2,27.2V5.4H166V0.2h11.5v5.2h-3.1
		v21.8H169.2L169.2,27.2z M185.3,27.2c-2.4,0-4.1-0.6-5.2-1.8s-1.6-3.1-1.6-5.8V17h5.2v3.3c0,0.6,0.1,1.1,0.3,1.4s0.5,0.5,1,0.5
		s0.8-0.1,1-0.4s0.3-0.7,0.3-1.4c0-0.8-0.1-1.5-0.2-2c-0.2-0.6-0.4-1.1-0.8-1.6s-0.9-1.1-1.6-1.7l-2.4-2.3c-1.8-1.7-2.6-3.6-2.6-5.8
		c0-2.3,0.5-4,1.6-5.2c1-1.2,2.6-1.8,4.5-1.8c2.4,0,4.1,0.6,5.1,1.9s1.5,3.3,1.5,5.9H186V6.2c0-0.4-0.1-0.6-0.3-0.8
		c-0.2-0.2-0.5-0.3-0.8-0.3c-0.4,0-0.7,0.1-0.9,0.4c-0.2,0.2-0.3,0.5-0.3,0.9c0,0.4,0.1,0.8,0.3,1.2s0.6,0.9,1.2,1.5l3,2.9
		c0.6,0.6,1.2,1.2,1.7,1.9c0.5,0.6,0.9,1.4,1.2,2.3c0.3,0.9,0.5,1.9,0.5,3.1c0,2.5-0.5,4.4-1.4,5.9
		C189.1,26.5,187.5,27.2,185.3,27.2L185.3,27.2z M207.9,7.8c-5.2,0-9.5,4.3-9.5,9.6s4.2,9.6,9.5,9.6c5.2,0,9.5-4.3,9.5-9.6
		S213.2,7.8,207.9,7.8L207.9,7.8z M207.9,25.3c-4.3,0-7.8-3.5-7.8-7.9s3.5-7.9,7.8-7.9c4.3,0,7.8,3.5,7.8,7.9S212.3,25.3,207.9,25.3
		z"/>
	<circle class="st0" cx="207.9" cy="17.4" r="6.2"/>
</g>
</svg>
